<svg xmlns="http://www.w3.org/2000/svg" xmlns:xlink="http://www.w3.org/1999/xlink" width="378" zoomAndPan="magnify" viewBox="0 0 283.5 283.500005" height="378" preserveAspectRatio="xMidYMid meet" version="1.0"><defs><filter x="0%" y="0%" width="100%" height="100%" id="508aa932ac"><feColorMatrix values="0 0 0 0 1 0 0 0 0 1 0 0 0 0 1 0 0 0 1 0" color-interpolation-filters="sRGB"/></filter><clipPath id="5e66b9a9a6"><path d="M 0 0 L 283 0 L 283 283 L 0 283 Z M 0 0 " clip-rule="nonzero"/></clipPath><mask id="464c041ad5"><g filter="url(#508aa932ac)"><rect x="-28.35" width="340.2" fill="#000000" y="-28.350001" height="340.200006" fill-opacity="0.33"/></g></mask><clipPath id="0419bdedd3"><path d="M 0 0.769531 L 168.46875 0.769531 L 168.46875 141.820312 L 0 141.820312 Z M 0 0.769531 " clip-rule="nonzero"/></clipPath><clipPath id="b2fc0151ad"><path d="M 113 63.167969 L 283 63.167969 L 283 204 L 113 204 Z M 113 63.167969 " clip-rule="nonzero"/></clipPath><clipPath id="dfcefe765f"><path d="M 197.296875 48.527344 L 200.558594 48.527344 L 200.558594 51.621094 L 197.296875 51.621094 Z M 197.296875 48.527344 " clip-rule="nonzero"/></clipPath><clipPath id="b987dfc8b9"><path d="M 79.0625 149.863281 L 82.320312 149.863281 L 82.320312 152.960938 L 79.0625 152.960938 Z M 79.0625 149.863281 " clip-rule="nonzero"/></clipPath><clipPath id="9cadf5c264"><rect x="0" width="283" y="0" height="205"/></clipPath></defs><path fill="#ffffff" d="M 0 0 L 283 0 L 283 283 L 0 283 Z M 0 0 " fill-opacity="1" fill-rule="nonzero"/><g clip-path="url(#5e66b9a9a6)"><path fill="#ffffff" d="M 0 0 L 283.035156 0 L 283.035156 283.035156 L 0 283.035156 Z M 0 0 " fill-opacity="1" fill-rule="nonzero"/></g><g mask="url(#464c041ad5)"><g transform="matrix(1, 0, 0, 1, 0, 39)"><g clip-path="url(#9cadf5c264)"><g clip-path="url(#0419bdedd3)"><path fill="#515541" d="M 168.570312 6.59375 C 168.183594 3.945312 166.398438 2.1875 163.765625 1.46875 C 160.113281 0.476562 156.617188 1.132812 153.242188 2.457031 C 147.917969 4.542969 143.386719 7.902344 139.300781 11.820312 C 135.300781 15.648438 131.800781 19.929688 128.324219 24.25 C 123.140625 30.6875 118.542969 37.519531 113.882812 44.316406 C 111.488281 47.800781 109.316406 51.445312 107.15625 55.082031 C 104.898438 58.902344 102.757812 62.800781 100.59375 66.679688 C 99.480469 68.667969 98.429688 70.691406 97.390625 72.714844 C 95.058594 77.265625 92.859375 81.867188 91.035156 86.648438 C 90.15625 88.972656 89.136719 91.25 88.34375 93.152344 L 88.105469 93.804688 C 84.191406 95.378906 80.289062 96.953125 76.261719 98.195312 C 69.921875 100.160156 63.679688 102.417969 57.3125 104.285156 C 47.335938 107.207031 37.257812 109.757812 27.074219 111.921875 C 15.480469 114.386719 3.816406 116.453125 -7.953125 117.882812 C -18.695312 119.183594 -29.496094 120.011719 -40.320312 120.421875 C -52.613281 120.898438 -64.855469 120.796875 -77.019531 118.671875 C -82.484375 117.722656 -87.609375 115.882812 -92.246094 112.800781 C -92.914062 112.359375 -93.449219 111.71875 -94.03125 111.1875 C -92.992188 109.714844 -91.539062 108.742188 -91.847656 106.664062 C -92.226562 105.960938 -92.695312 105.074219 -93.210938 104.113281 C -94.492188 104.042969 -95.761719 103.976562 -96.496094 103.933594 C -100.359375 104.796875 -99.410156 108.292969 -101 110.0625 C -100.460938 112.050781 -99.742188 113.820312 -97.964844 114.757812 C -95.929688 115.84375 -93.84375 116.863281 -91.691406 117.671875 C -86.128906 119.761719 -80.320312 120.902344 -74.441406 121.5625 C -61.777344 122.980469 -49.070312 123.09375 -36.355469 122.519531 C -26.394531 122.074219 -16.445312 121.199219 -6.566406 119.875 C 1.019531 118.855469 8.605469 117.738281 16.132812 116.335938 C 24.214844 114.839844 32.265625 113.078125 40.269531 111.222656 C 50.527344 108.835938 60.679688 105.96875 70.671875 102.652344 C 76.164062 100.828125 81.570312 98.761719 86.988281 96.738281 L 86.179688 98.941406 C 86.082031 99.496094 86.039062 100.050781 85.878906 100.558594 C 83.539062 108.023438 81.828125 115.601562 81.519531 123.453125 C 81.40625 126.296875 81.628906 129.097656 82.121094 131.867188 C 82.367188 133.234375 82.894531 134.597656 83.539062 135.84375 C 85.792969 140.246094 89.222656 141.808594 94.054688 140.65625 C 95.738281 140.25 97.453125 139.765625 98.976562 138.984375 C 101.96875 137.445312 104.949219 135.847656 107.722656 133.957031 C 114.203125 129.550781 120.210938 124.535156 125.835938 119.085938 C 129.574219 115.460938 133.28125 111.789062 136.925781 108.066406 C 142.476562 102.40625 147.988281 96.695312 153.46875 90.96875 C 154.289062 90.117188 154.914062 89.074219 155.570312 88.082031 C 155.707031 87.886719 155.5625 87.511719 155.546875 87.089844 C 154.222656 87.1875 153.570312 88.128906 152.84375 88.832031 C 151.433594 90.1875 150.152344 91.664062 148.777344 93.050781 C 143.636719 98.191406 138.480469 103.320312 133.324219 108.445312 C 132.238281 109.515625 131.121094 110.546875 130.023438 111.605469 C 122.902344 118.460938 115.796875 125.328125 107.589844 130.941406 C 104.4375 133.097656 101.261719 135.175781 97.78125 136.738281 C 96.109375 137.488281 94.316406 138.050781 92.527344 138.429688 C 90.214844 138.917969 87.929688 137.722656 86.730469 135.683594 C 85.71875 133.96875 85.28125 132.0625 85.042969 130.109375 C 84.453125 125.417969 85.015625 120.757812 85.949219 116.195312 C 87.214844 110.023438 88.898438 103.945312 91.148438 98.066406 C 93.710938 95.882812 96.011719 93.929688 98.320312 91.949219 C 101.277344 89.414062 104.226562 86.875 107.167969 84.328125 C 113.566406 78.78125 119.707031 72.96875 125.710938 66.996094 C 128.328125 64.402344 130.9375 61.796875 133.527344 59.164062 C 135.269531 57.398438 136.996094 55.609375 138.683594 53.789062 C 142.738281 49.402344 146.652344 44.898438 150.484375 40.324219 C 155.378906 34.484375 159.984375 28.453125 163.835938 21.890625 C 165.816406 18.519531 167.496094 14.980469 168.359375 11.105469 C 168.707031 9.589844 168.78125 8.085938 168.558594 6.582031 Z M 165.085938 13.449219 C 163.625 17.109375 161.609375 20.453125 159.371094 23.660156 C 153.578125 31.9375 146.871094 39.457031 139.902344 46.75 C 137.128906 49.652344 134.464844 52.671875 131.628906 55.515625 C 128.871094 58.269531 125.890625 60.804688 123.113281 63.539062 C 116.855469 69.699219 110.128906 75.332031 103.59375 81.183594 C 101.574219 82.984375 99.429688 84.65625 97.324219 86.355469 C 96.945312 86.664062 96.449219 86.847656 95.664062 87.277344 C 95.917969 85.714844 96.457031 84.65625 96.945312 83.617188 C 99.367188 78.519531 101.742188 73.398438 104.335938 68.398438 C 105.824219 65.53125 107.25 62.617188 108.957031 59.863281 C 110.726562 57.007812 112.164062 53.949219 113.964844 51.125 C 117.828125 45.105469 121.363281 38.863281 125.679688 33.136719 C 127.238281 31.070312 128.574219 28.832031 130.152344 26.769531 C 133.257812 22.730469 136.304688 18.621094 139.972656 15.054688 C 143.863281 11.269531 147.792969 7.53125 152.875 5.304688 C 155.074219 4.335938 157.28125 3.453125 159.675781 3.144531 C 160.320312 3.066406 160.988281 2.898438 161.613281 2.988281 C 165.082031 3.476562 166.269531 5.007812 166.277344 7.742188 C 166.296875 9.730469 165.832031 11.597656 165.09375 13.4375 Z M 165.085938 13.449219 " fill-opacity="1" fill-rule="nonzero"/></g><g clip-path="url(#b2fc0151ad)"><path fill="#515541" d="M 113.882812 198.382812 C 114.273438 201.035156 116.0625 202.800781 118.699219 203.519531 C 122.359375 204.511719 125.859375 203.851562 129.242188 202.527344 C 134.578125 200.4375 139.117188 197.070312 143.214844 193.144531 C 147.21875 189.308594 150.726562 185.019531 154.210938 180.6875 C 159.40625 174.242188 164.011719 167.394531 168.679688 160.582031 C 171.082031 157.09375 173.257812 153.4375 175.421875 149.796875 C 177.683594 145.96875 179.832031 142.0625 181.996094 138.175781 C 183.109375 136.183594 184.164062 134.15625 185.207031 132.128906 C 187.542969 127.566406 189.746094 122.957031 191.574219 118.167969 C 192.457031 115.839844 193.476562 113.558594 194.269531 111.652344 L 194.507812 110.996094 C 198.433594 109.417969 202.339844 107.839844 206.378906 106.597656 C 212.726562 104.628906 218.988281 102.367188 225.363281 100.496094 C 235.363281 97.566406 245.457031 95.011719 255.660156 92.84375 C 267.28125 90.371094 278.964844 88.304688 290.757812 86.871094 C 301.523438 85.566406 312.34375 84.734375 323.191406 84.324219 C 335.507812 83.847656 347.777344 83.953125 359.964844 86.082031 C 365.441406 87.03125 370.574219 88.875 375.222656 91.960938 C 375.890625 92.40625 376.425781 93.046875 377.011719 93.578125 C 375.96875 95.054688 374.515625 96.03125 374.820312 98.113281 C 375.199219 98.816406 375.671875 99.707031 376.191406 100.667969 C 377.46875 100.738281 378.746094 100.804688 379.480469 100.847656 C 383.351562 99.980469 382.398438 96.480469 383.992188 94.707031 C 383.453125 92.714844 382.734375 90.941406 380.949219 90 C 378.914062 88.914062 376.820312 87.890625 374.664062 87.082031 C 369.09375 84.988281 363.273438 83.84375 357.382812 83.183594 C 344.691406 81.761719 331.957031 81.648438 319.21875 82.222656 C 309.238281 82.671875 299.273438 83.546875 289.371094 84.875 C 281.769531 85.898438 274.167969 87.015625 266.628906 88.421875 C 258.527344 89.917969 250.460938 91.6875 242.441406 93.546875 C 232.164062 95.933594 221.992188 98.808594 211.976562 102.132812 C 206.476562 103.960938 201.058594 106.03125 195.628906 108.054688 L 196.4375 105.851562 C 196.535156 105.292969 196.578125 104.738281 196.742188 104.230469 C 199.085938 96.75 200.800781 89.15625 201.109375 81.289062 C 201.222656 78.4375 201 75.632812 200.507812 72.855469 C 200.257812 71.488281 199.730469 70.121094 199.085938 68.875 C 196.828125 64.464844 193.390625 62.894531 188.546875 64.050781 C 186.863281 64.457031 185.144531 64.945312 183.617188 65.726562 C 180.621094 67.269531 177.628906 68.867188 174.851562 70.765625 C 168.363281 75.179688 162.339844 80.207031 156.703125 85.664062 C 152.957031 89.296875 149.246094 92.976562 145.59375 96.707031 C 140.03125 102.375 134.507812 108.101562 129.015625 113.839844 C 128.195312 114.695312 127.566406 115.738281 126.910156 116.730469 C 126.773438 116.925781 126.917969 117.304688 126.933594 117.726562 C 128.257812 117.628906 128.914062 116.683594 129.644531 115.980469 C 131.054688 114.625 132.339844 113.140625 133.71875 111.753906 C 138.867188 106.601562 144.035156 101.464844 149.203125 96.328125 C 150.289062 95.253906 151.40625 94.222656 152.511719 93.160156 C 159.644531 86.292969 166.761719 79.414062 174.988281 73.785156 C 178.144531 71.625 181.328125 69.542969 184.8125 67.976562 C 186.488281 67.226562 188.289062 66.664062 190.078125 66.285156 C 192.394531 65.792969 194.6875 66.992188 195.886719 69.035156 C 196.902344 70.753906 197.339844 72.660156 197.578125 74.617188 C 198.167969 79.320312 197.605469 83.988281 196.671875 88.5625 C 195.402344 94.746094 193.714844 100.835938 191.460938 106.726562 C 188.894531 108.914062 186.585938 110.871094 184.273438 112.855469 C 181.3125 115.394531 178.355469 117.941406 175.410156 120.492188 C 169 126.046875 162.84375 131.875 156.828125 137.859375 C 154.207031 140.457031 151.589844 143.066406 148.996094 145.703125 C 147.25 147.476562 145.523438 149.265625 143.832031 151.09375 C 139.765625 155.488281 135.847656 160 132.003906 164.582031 C 127.101562 170.4375 122.488281 176.480469 118.628906 183.054688 C 116.644531 186.433594 114.957031 189.980469 114.09375 193.859375 C 113.75 195.378906 113.671875 196.886719 113.894531 198.394531 Z M 117.375 191.515625 C 118.839844 187.84375 120.859375 184.492188 123.105469 181.285156 C 128.90625 172.988281 135.625 165.453125 142.609375 158.144531 C 145.386719 155.238281 148.054688 152.210938 150.898438 149.363281 C 153.660156 146.601562 156.648438 144.0625 159.433594 141.320312 C 165.703125 135.148438 172.441406 129.507812 178.992188 123.644531 C 181.015625 121.839844 183.164062 120.164062 185.273438 118.460938 C 185.652344 118.152344 186.148438 117.96875 186.9375 117.535156 C 186.683594 119.101562 186.144531 120.164062 185.652344 121.207031 C 183.222656 126.3125 180.847656 131.441406 178.246094 136.453125 C 176.753906 139.328125 175.328125 142.246094 173.613281 145.007812 C 171.84375 147.867188 170.40625 150.929688 168.597656 153.761719 C 164.730469 159.792969 161.183594 166.046875 156.859375 171.789062 C 155.296875 173.855469 153.957031 176.101562 152.378906 178.164062 C 149.265625 182.210938 146.214844 186.332031 142.539062 189.902344 C 138.640625 193.699219 134.703125 197.441406 129.609375 199.675781 C 127.40625 200.640625 125.195312 201.527344 122.796875 201.835938 C 122.152344 201.917969 121.480469 202.085938 120.855469 201.992188 C 117.378906 201.507812 116.191406 199.972656 116.179688 197.230469 C 116.164062 195.238281 116.628906 193.367188 117.371094 191.523438 Z M 117.375 191.515625 " fill-opacity="1" fill-rule="nonzero"/></g><g clip-path="url(#dfcefe765f)"><path fill="#515541" d="M 197.5 50.566406 C 197.390625 50.265625 197.167969 49.863281 197.398438 49.347656 C 197.667969 48.722656 198.277344 48.511719 198.96875 48.527344 C 199.382812 48.535156 199.742188 48.613281 200.050781 48.871094 C 200.410156 49.171875 200.535156 49.574219 200.558594 50.015625 C 200.574219 50.339844 200.5 50.761719 200.265625 51.011719 C 200.054688 51.234375 199.636719 51.507812 199.328125 51.59375 C 198.933594 51.703125 198.425781 51.460938 198.09375 51.285156 C 197.976562 51.21875 197.867188 51.152344 197.777344 51.054688 C 197.6875 50.957031 197.546875 50.703125 197.5 50.566406 " fill-opacity="1" fill-rule="nonzero"/></g><g clip-path="url(#b987dfc8b9)"><path fill="#515541" d="M 79.261719 151.90625 C 79.15625 151.605469 78.933594 151.203125 79.160156 150.683594 C 79.433594 150.0625 80.042969 149.851562 80.730469 149.867188 C 81.144531 149.875 81.503906 149.953125 81.816406 150.210938 C 82.171875 150.507812 82.296875 150.914062 82.320312 151.355469 C 82.335938 151.679688 82.261719 152.101562 82.03125 152.351562 C 81.820312 152.574219 81.398438 152.847656 81.089844 152.933594 C 80.695312 153.042969 80.191406 152.800781 79.859375 152.625 C 79.738281 152.558594 79.628906 152.492188 79.539062 152.394531 C 79.453125 152.296875 79.308594 152.042969 79.261719 151.90625 " fill-opacity="1" fill-rule="nonzero"/></g></g></g></g></svg>